<?xml version="1.0" encoding="UTF-8"?>
<!DOCTYPE svg PUBLIC "-//W3C//DTD SVG 1.1//EN" "http://www.w3.org/Graphics/SVG/1.1/DTD/svg11.dtd">
<svg version="1.1" xmlns="http://www.w3.org/2000/svg" xmlns:xlink="http://www.w3.org/1999/xlink" x="0" y="0" width="590" height="602" viewBox="0, 0, 590, 602">
  <defs>
    <clipPath id="Clip_1">
      <path d="M0.06,0.242 L589.426,0.242 L589.426,602 L0.06,602 z"/>
    </clipPath>
  </defs>
  <g id="Layer_1">
    <g clip-path="url(#Clip_1)">
      <path d="M132.688,596.581 C132.056,602.299 127.904,602.277 123.811,601.712 C119.607,601.131 119.441,597.689 119.67,594.447 C121.764,564.732 124.364,535.061 127.952,505.484 C130.596,483.681 133.552,461.92 137.356,440.284 C137.76,437.987 137.039,436.829 135.113,435.466 C119.45,424.381 113.93,409.16 117.66,390.561 C118.201,387.862 117.912,386.484 115.719,384.822 C92.189,366.982 76.524,343.465 66.616,315.919 C65.524,312.881 64.299,311.726 60.826,311.465 C44.237,310.223 33.206,299.365 31.556,282.749 C30.324,270.333 30.24,258.006 39.7,248.032 C40.953,246.712 40.152,246.188 39.105,245.381 C20.826,231.29 17.45,211.653 18.981,190.368 C19.826,178.614 23.303,167.567 29.837,157.379 C23.49,154.97 17.542,152.487 12.463,148.33 C0.127,138.235 -3.41,123.755 3.465,109.366 C11.5,92.545 25.407,81.644 41.424,73.133 C53.076,66.941 65.422,62.522 78.364,59.908 C80.814,59.414 82.572,58.134 84.389,56.654 C115.151,31.594 149.365,13.202 188.369,5.012 C230.016,-3.733 271.194,-0.11 311.444,13.061 C354.463,27.138 391.67,50.366 419.556,86.581 C446.024,120.953 458.296,160.091 455.282,203.609 C454.254,218.457 450.771,232.84 444.914,246.564 C443.798,249.178 443.82,251.097 445.07,253.855 C451.627,268.322 451.505,282.998 444.182,297.116 C438.647,307.789 424.851,313.559 411.445,311.244 C407.679,310.594 406.414,311.614 405.208,315.02 C395.141,343.444 378.988,367.584 354.525,385.703 C352.778,386.997 352.373,388.114 352.921,390.26 C354.116,394.941 354.898,399.762 353.98,404.595 C353.549,406.862 354.675,407.946 356.189,409.119 C368.299,418.497 380.416,427.867 392.457,437.333 C395.002,439.333 396.117,438.964 396.289,435.748 C396.315,435.25 396.308,434.731 396.447,434.26 C398.642,426.819 397.739,420.698 390.54,415.973 C387.177,413.767 385.052,409.777 383.47,405.858 C380.096,397.504 382.415,389.808 390.052,385.078 C392.435,383.602 393.302,382.661 392.586,379.438 C387.854,358.11 395.604,334.519 425.919,330.77 C441.961,328.786 457.039,330.653 468.748,343.097 C481.118,356.244 485.422,372.336 484.002,390.045 C482.981,402.795 478.852,414.4 470.051,424.002 C467.838,426.417 468.626,429.365 468.475,432.098 C467.246,454.391 465.318,476.589 459.394,498.224 C458.171,502.689 456.564,507.088 454.721,511.338 C447.563,527.849 438.331,532.673 420.604,529.319 C397.264,524.903 375.378,516.039 353.468,507.26 C350.566,506.097 347.671,504.921 344.297,503.559 C345.518,516.991 346.884,529.875 347.814,542.79 C349.034,559.715 349.951,576.662 350.895,593.605 C351.076,596.864 351.533,601.099 347.111,601.593 C341.772,602.189 339.604,603.136 337.466,596.105 C336.433,594.898 336.109,593.456 336.131,591.92 C336.331,578.261 334.933,564.676 333.982,551.085 C332.704,532.839 331.172,514.595 328.552,496.478 C328.002,492.674 327.485,489.16 330.934,486.473 C334.531,483.67 338.178,484.882 341.765,486.51 C361.499,495.468 381.69,503.244 402.347,509.79 C410.285,512.305 418.336,514.377 426.637,515.427 C433.38,516.281 437.732,513.481 440.617,507.498 C443.022,502.513 444.848,497.353 446.198,492.022 C450.671,474.36 452.265,456.293 453.657,438.198 C453.822,436.05 452.968,435.109 450.952,434.9 C446.234,434.411 441.864,432.909 437.862,430.347 C436.306,429.351 434.768,429.283 433.223,430.42 C428.258,434.074 422.74,434.1 416.987,432.994 C411.456,431.93 411.454,432.013 410.503,437.748 C409.823,441.855 409.38,445.996 408.715,450.105 C407.289,458.919 401.236,461.608 394.023,456.359 C380.693,446.66 367.564,436.69 354.697,426.378 C350.166,422.748 350.118,422.732 346.464,427.248 C344.462,429.723 342.352,432.093 339.739,433.902 C323.513,445.135 305.618,451.755 285.873,453.131 C283.898,453.269 281.864,453.315 279.978,452.412 C277.098,448.828 277.145,444.622 277.411,440.37 C278.344,437.465 280.846,437.638 283.155,437.505 C297.881,436.656 311.551,432.303 324.482,425.314 C333.373,420.509 338.364,413.152 339.68,403.209 C339.874,401.742 340.429,400.094 339.183,398.939 C337.765,397.623 336.329,398.848 335.075,399.497 C316.105,409.325 295.99,415.489 274.854,418.404 C271.582,418.855 269.511,420.53 268.248,423.675 C265.877,429.578 262.551,434.978 258.489,439.875 C246.978,453.751 229.364,454.588 216.372,442.134 C210.644,436.643 206.092,430.341 202.386,423.418 C200.726,420.317 198.449,418.72 195.035,418.218 C173.941,415.116 153.859,408.833 134.913,398.976 C131.268,397.079 130.574,397.543 130.863,401.697 C131.532,411.297 135.764,419.095 144.076,423.973 C157.605,431.913 172.173,436.888 188.022,437.511 C189.823,437.582 191.744,437.409 193.06,439.103 C193.924,443.828 193.553,448.311 190.514,452.282 C184.193,454.572 177.999,452.5 171.818,451.556 C167.049,450.828 162.46,449.213 157.879,447.661 C151.463,445.488 151.128,445.653 150.111,452.097 C147.465,468.875 145.055,485.687 142.988,502.547 C139.766,528.814 137.388,555.165 135.082,581.524 C134.638,586.599 135.828,591.935 132.688,596.581" fill="#6E4100"/>
      <path d="M132.688,596.581 C134.035,573.162 136.134,549.8 138.656,526.486 C141.517,500.031 144.974,473.648 149.264,447.376 C149.845,443.819 150.683,443.339 153.928,444.681 C165.582,449.499 177.76,451.918 190.405,451.796 C192.036,453.271 191.584,455.135 191.317,456.931 C188.969,472.75 186.603,488.566 184.448,504.412 C183.939,508.153 183.195,511.482 179.004,513.1 C176.767,513.964 176.009,516.551 177.041,518.671 C179.24,523.185 177.584,527.078 175.788,531.067 C175.037,532.736 174.159,534.365 173.829,536.189 C173.333,538.933 174.056,541.254 176.712,542.446 C179.585,543.735 181.476,542.164 182.883,539.797 C183.905,538.076 184.833,536.289 185.515,534.413 C187.089,530.078 189.154,526.363 193.703,524.248 C196.628,522.888 197.68,519.888 195.693,517.073 C193.168,513.495 193.83,509.795 194.368,506.024 C197.309,485.411 200.43,464.824 203.503,444.231 C203.577,443.736 203.702,443.248 203.749,442.752 C204.062,439.443 204.945,435.763 201.081,433.948 C197.149,432.1 195.445,435.349 193.594,437.922 C193.3,438.332 192.849,438.576 192.398,438.798 C174.535,439.324 158.253,433.907 143.126,424.975 C133.044,419.021 129.039,409.479 129.489,397.918 C129.592,395.275 130.343,394.76 132.746,396.117 C152.836,407.459 174.528,413.975 197.272,417.181 C200.213,417.595 201.801,418.889 203.1,421.584 C206.654,428.96 211.164,435.734 217.222,441.375 C229.89,453.169 246.522,452.126 257.548,438.829 C261.723,433.793 265.168,428.27 267.37,422.143 C268.566,418.813 270.519,417.603 273.801,417.155 C296.228,414.094 317.62,407.698 337.495,396.703 C340.9,394.82 341.252,396.844 341.24,399.2 C341.184,410.287 337.08,419.44 327.284,425.129 C313.61,433.071 299.011,438.345 282.963,438.782 C281.346,438.826 279.616,438.347 278.112,439.406 C276.037,439.321 276.267,437.344 275.551,436.189 C274.255,434.096 272.512,433.078 270.113,433.714 C267.697,434.355 266.619,436.198 266.627,438.59 C266.644,443.102 267.576,447.522 268.263,451.954 C271.147,470.531 273.827,489.138 276.528,507.742 C276.968,510.773 276.701,513.608 275.291,516.457 C273.044,520.995 273.774,523.21 278.279,525.21 C280.958,526.399 282.457,528.26 283.577,530.801 C284.785,533.541 285.76,536.392 287.207,539.015 C288.662,541.652 290.691,543.895 293.993,542.427 C297.167,541.015 297.161,538.067 296.374,535.114 C296.074,533.987 295.685,532.878 295.175,531.835 C293.087,527.559 291.637,523.324 293.539,518.452 C294.481,516.04 293.289,513.736 290.899,512.633 C287.725,511.168 286.773,508.493 286.345,505.422 C284.114,489.438 281.78,473.47 279.374,457.512 C279.08,455.564 278.786,453.512 280.372,451.846 C299.56,451.974 317.008,445.932 333.535,436.738 C339.151,433.613 343.919,429.364 347.17,423.825 C348.983,420.734 350.189,420.98 352.694,422.937 C366.339,433.601 380.116,444.098 393.836,454.668 C396.656,456.84 399.478,459.101 403.322,457.328 C406.93,455.665 407.097,452.214 407.5,448.857 C408.114,443.737 408.97,438.646 409.568,433.525 C409.903,430.66 410.629,429.628 413.925,430.641 C421.082,432.842 428.35,433.886 434.392,427.677 C435.584,426.453 436.406,427.181 437.321,427.989 C442.377,432.455 448.332,433.929 455.295,433.112 C454.859,444.563 453.822,455.803 452.32,466.987 C450.68,479.196 448.549,491.328 444.208,502.935 C443.337,505.264 442.176,507.493 441.047,509.717 C438.182,515.358 433.932,517.943 427.282,517.051 C410.479,514.796 394.682,509.123 378.983,503.2 C365.921,498.273 353.084,492.747 340.195,487.37 C337.124,486.089 334.177,485.023 331.338,487.504 C328.552,489.94 329.332,492.829 329.868,496.159 C331.402,505.677 332.397,515.294 333.267,524.902 C335.294,547.28 337.009,569.684 337.788,592.148 C337.834,593.46 337.58,594.782 337.465,596.102 C270.517,596.078 203.567,596.047 136.618,596.046 C135.308,596.046 133.998,596.395 132.688,596.581" fill="#87C9D5"/>
      <path d="M570.28,223.445 C573.772,223.445 577.265,223.4 580.757,223.455 C586.385,223.544 589.262,226.03 589.419,230.842 C589.583,235.879 586.593,238.925 581.036,239.191 C566.254,239.897 551.469,240.547 536.684,241.214 C533.535,241.356 530.35,241.822 527.243,241.514 C522.752,241.068 520.151,237.676 520.291,233.268 C520.429,228.922 523.346,225.954 527.928,225.715 C542.042,224.98 556.159,224.307 570.275,223.609 C570.277,223.555 570.278,223.5 570.28,223.445" fill="#FF7164"/>
    </g>
    <path d="M523.414,166.727 C519.494,166.53 516.638,164.913 515.618,161.317 C514.392,156.999 515.702,153.363 519.891,151.253 C528.936,146.697 538.004,142.186 547.113,137.761 C550.844,135.948 554.648,134.253 558.523,132.778 C562.75,131.17 566.682,132.788 568.617,136.593 C570.489,140.273 569.437,145.162 565.505,146.925 C552.014,152.972 538.859,159.691 525.607,166.219 C524.888,166.572 524.007,166.596 523.414,166.727" fill="#FF7164"/>
    <path d="M551.325,327.178 C548.263,327.018 545.538,325.67 542.737,324.661 C532.737,321.062 522.925,316.943 512.483,314.626 C507.774,313.581 505.384,309.189 506.514,304.663 C507.544,300.542 511.579,298.074 516.266,299.045 C524.916,300.838 533.176,303.93 541.44,306.981 C545.96,308.651 550.539,310.185 554.97,312.065 C558.908,313.737 560.22,317.139 559.346,321.126 C558.444,325.246 555.505,327.154 551.325,327.178" fill="#FF7164"/>
    <path d="M391.539,313.835 C378.839,348.652 355.832,374.126 322.231,389.819 C295.347,402.376 266.699,406.652 237.338,406.829 C206.096,407.018 175.614,402.755 147.173,388.923 C115.727,373.63 93.692,349.539 81.169,316.829 C83.141,315.789 84.714,317.066 86.291,317.836 C89.613,319.456 93.145,320.318 96.69,321.26 C112.019,325.333 123.22,319.116 132.23,307.262 C139.08,298.249 141.057,288.514 136.953,277.685 C133.121,267.575 127.769,258.763 117.469,254.141 C103.021,247.658 88.333,253.292 79.181,263.802 C77,266.307 75.19,269.122 73.297,271.861 C72.48,273.043 71.638,275.138 69.718,272.882 C63.525,219.89 75.942,171.777 108.344,129.295 C123.128,109.912 142.532,95.998 165.162,85.681 C166.993,100.945 171.208,115.168 177.698,128.659 C184.971,143.781 193.869,157.747 207.324,168.272 C211.558,171.584 216.193,174.229 221.394,175.595 C232.488,178.51 241.744,175.185 249.252,166.747 C254.998,160.288 258.494,152.621 260.865,143.888 C267.032,151.518 273.546,158.372 281.093,164.151 C289.318,170.45 298.055,175.845 307.954,179.187 C313.939,181.208 319.996,181.649 326.144,180.254 C337.302,177.725 342.917,170.223 344.652,159.286 C346.468,159.064 347.194,160.577 348.244,161.491 C360.123,171.825 372.94,180.198 389.357,180.785 C392.007,180.879 392.063,182.675 392.621,184.362 C401.726,211.87 406.13,239.913 402.265,268.9 C401.539,269.741 402.56,271.503 400.979,271.759 C399.867,271.939 399.327,270.76 398.879,269.922 C391.869,256.829 379.748,252.538 366.124,251.369 C358.189,250.688 351.019,253.382 345.062,258.803 C334.957,268.001 328.837,278.933 332.711,292.938 C336.875,307.988 345.312,319.458 361.992,322.016 C371.044,323.404 378.99,320.122 386.134,314.718 C387.45,313.722 388.462,312.23 390.149,311.85 C391.917,311.452 392.198,312.383 391.539,313.835" fill="#FEF8EA"/>
    <path d="M41.485,165.572 C41.574,162.429 44.025,161.152 46.26,159.934 C49.075,158.399 50.985,156.423 50.893,153.074 C50.797,149.569 48.406,148.014 45.459,147.009 C42.068,142.915 37.294,140.308 34.001,136.047 C28.078,128.382 27.81,120.157 31.311,111.634 C34.456,103.979 39.65,97.685 45.833,92.271 C54.622,84.573 63.98,77.768 75.568,74.801 C79.716,71.438 84.978,72.087 89.729,70.919 C92.626,70.207 95.635,69.963 98.545,69.294 C102.982,68.273 105.294,65.475 103.968,60.917 C103.259,58.477 104.374,57.666 105.961,56.546 C136.179,35.214 168.926,19.243 205.959,15.243 C270.334,8.29 328.749,24.245 379.855,64.711 C408.698,87.55 428.159,116.771 437.63,152.364 C445.36,181.419 444.687,210.265 434.141,238.669 C432.995,241.755 431.846,243.519 428.073,242.178 C426.145,241.493 423.635,241.513 421.654,242.104 C417.222,243.428 416.469,241.856 416.335,237.655 C415.731,218.735 411.403,200.466 405.795,182.477 C404.934,179.718 404.092,177.549 407.174,175.232 C409.572,173.428 409.561,170.267 407.849,167.508 C406.058,164.621 403.012,163.804 400.424,165.022 C385.738,171.933 374.16,164.642 363.131,156.686 C352.22,148.815 343.19,139.048 338.508,125.97 C337.141,122.153 334.369,120.337 330.322,121.513 C326.407,122.651 324.748,126.36 326.376,130.763 C329.095,138.121 331.698,145.445 331.73,153.443 C331.778,165.252 325.48,170.432 314.098,167.233 C301.121,163.585 290.45,155.872 280.928,146.635 C270.937,136.943 263.107,125.999 262.431,111.283 C262.257,107.499 259.297,105.773 255.783,105.968 C251.861,106.185 249.854,108.963 249.659,112.648 C249.394,117.633 249.582,122.642 249.553,127.64 C249.491,138.036 247.196,147.745 240.896,156.271 C235.208,163.969 228.292,165.676 220.049,160.888 C207.785,153.767 199.948,142.565 193.396,130.468 C183.931,112.996 177.356,94.642 178.196,74.323 C178.35,70.582 177.475,67.148 173.361,66.015 C169.608,64.981 166.862,66.62 165.366,70.204 C164.698,71.806 163.185,72.186 161.853,72.777 C105.634,97.728 74.547,142.557 60.553,200.881 C58.186,210.743 56.483,220.733 55.427,230.826 C53.669,231.271 52.538,230.183 51.596,229.042 C37.26,211.668 32.558,192.175 38.781,170.308 C39.585,168.676 40.046,166.844 41.485,165.572" fill="#C9A76F"/>
    <path d="M391.539,313.835 C389.386,311.04 388.815,314.296 387.945,314.985 C379.951,321.32 371.246,324.798 360.803,323.14 C347.201,320.98 339.27,312.205 333.855,300.493 C324.633,280.544 334.075,264.011 349.589,253.894 C357.412,248.793 366.37,249.199 375.097,251.283 C385.823,253.843 394.95,259.045 400.039,269.347 C402.107,273.533 401.329,267.88 402.265,268.899 C400.529,284.317 397.492,299.424 391.539,313.835" fill="#FFD9B4"/>
    <path d="M69.718,272.882 C72.137,273.968 71.959,271.592 72.593,270.576 C77.728,262.347 84.148,255.745 93.498,252.202 C105.483,247.661 119.742,250.699 128.535,260.489 C135.129,267.831 139.153,276.602 140.376,286.393 C141.277,293.608 138.856,300.203 134.689,306.05 C121.313,324.815 107.673,327.849 86.143,319.144 C84.45,318.459 82.826,317.605 81.169,316.829 C74.959,302.804 71.789,287.986 69.718,272.882" fill="#FFD9B4"/>
    <path d="M471.26,384.236 C470.886,396.54 468.03,407.972 458.743,416.813 C453.221,422.069 447.088,421.291 443.78,415.188 C442.074,412.04 441.566,409.065 444.727,406.213 C447.579,403.64 447.925,400.282 445.508,397.267 C442.887,393.999 439.616,394.148 436.174,396.326 C434.085,397.649 431.857,398.836 429.547,399.699 C427.738,400.375 425.521,401.079 423.969,399.197 C422.663,397.613 423.24,395.683 423.965,393.983 C425.202,391.084 426.657,388.276 427.872,385.368 C429.82,380.707 428.881,377.224 425.355,375.481 C421.708,373.68 418.672,375.035 416.168,379.584 C415.209,381.325 414.409,383.61 412.093,383.491 C409.184,383.34 407.498,381.055 406.171,378.674 C400.782,369.002 405.586,351.973 415.749,347.435 C438.297,337.366 464.23,342.807 470.374,374.793 C470.967,377.878 471.645,381.011 471.26,384.236" fill="#FEF8EA"/>
    <path d="M192.398,438.798 C193.156,436.052 193.841,433.253 196.932,432.089 C201.476,430.377 205.928,433.407 205.465,438.53 C204.719,446.777 203.343,454.97 202.166,463.176 C199.93,478.772 197.677,494.367 195.346,509.949 C195.016,512.155 194.995,513.824 196.628,515.817 C199.902,519.814 198.522,524.715 193.601,526.106 C190.521,526.977 189.327,528.739 188.298,531.283 C186.989,534.515 185.646,537.747 184.06,540.848 C182.306,544.278 179.451,545.682 175.78,543.925 C172.301,542.26 171.061,539.368 172.381,535.668 C173.217,533.325 174.276,531.06 175.288,528.784 C176.695,525.62 177.76,522.865 175.544,519.182 C173.416,515.645 175.583,512.455 179.394,510.968 C180.778,510.429 182.172,510.509 182.456,508.438 C185.046,489.549 187.741,470.674 190.406,451.795 C191.07,447.463 191.734,443.13 192.398,438.798" fill="#FEFEFE"/>
    <path d="M280.372,451.846 C281.411,465.44 284.306,478.779 285.933,492.293 C286.547,497.397 287.498,502.46 288.2,507.555 C288.447,509.349 288.989,510.291 290.99,510.967 C295.433,512.467 297.082,516.078 294.787,520.013 C293.019,523.044 293.764,525.262 295.017,527.883 C296.163,530.282 297.348,532.703 298.105,535.238 C299.199,538.897 298.778,542.346 294.748,544.034 C290.747,545.71 287.993,543.81 286.224,540.265 C284.964,537.74 283.908,535.111 282.812,532.507 C281.542,529.491 280.604,526.72 276.436,525.921 C272.592,525.184 270.841,520.643 272.882,518.007 C277.646,511.857 274.605,505.832 273.831,499.92 C271.286,480.499 268.184,461.152 265.422,441.759 C264.496,435.251 266.132,432.319 270.417,431.77 C274.656,431.227 276.849,433.405 278.112,439.411 C278.952,443.537 278.907,447.829 280.372,451.846" fill="#FEFEFE"/>
    <path d="M75.568,74.801 C62.782,80.916 50.63,87.937 41.132,98.78 C37.276,103.182 33.968,107.938 31.896,113.442 C28.139,123.425 30.919,132.642 39.319,139.748 C41.704,141.766 45.667,142.709 45.458,147.009 C38.262,146.381 31.384,144.605 25.077,141.016 C12.486,133.853 9.817,123.702 17.182,111.301 C21.945,103.281 28.58,97.036 36.092,91.694 C47.029,83.916 59.191,78.678 72.021,74.953 C73.055,74.653 74.344,73.242 75.568,74.801" fill="#FEFEFE"/>
    <path d="M436.417,274.596 C436.623,279.175 435.98,283.434 434.398,287.514 C431.248,295.638 421.006,300.719 412.651,298.486 C410.714,297.968 410.511,297.184 410.975,295.309 C413.891,283.509 415.378,271.483 416.262,259.377 C416.362,258.003 416.444,256.897 417.95,256.137 C424.803,252.679 432.513,255.687 434.943,262.991 C436.211,266.804 436.679,270.768 436.417,274.596" fill="#FEF8EA"/>
    <path d="M39.628,170.024 C36.054,183.835 37.045,197.393 41.915,210.725 C44.766,218.53 49.237,225.26 55.427,230.827 C55.153,237.48 53.329,238.527 47.423,235.101 C40.751,231.231 36.923,224.949 34.699,217.918 C29.387,201.127 30.44,184.672 38.529,168.848 C39.472,168.701 40.052,168.894 39.628,170.024" fill="#FEFEFD"/>
    <path d="M61.13,298.296 C53.152,297.575 48.092,293.731 45.83,286.817 C43.246,278.921 43.238,270.811 45.64,262.817 C46.15,261.119 47.142,259.475 48.247,258.069 C49.726,256.187 51.995,254.692 54.255,255.408 C56.332,256.066 55.238,258.648 55.346,260.35 C56.145,272.962 58.171,285.384 61.13,298.296" fill="#FEF7E9"/>
    <path d="M223.523,419.637 C233.461,419.637 243.399,419.637 254.153,419.637 C250.989,426.411 247.452,432.209 240.95,435.511 C236.434,437.805 232.224,436.288 228.359,433.593 C223.619,430.289 220.587,425.499 217.445,420.815 C218.96,417.784 221.457,419.823 223.523,419.637" fill="#FEF8E9"/>
    <path d="M421.833,419.2 C410.935,416.637 401.967,411.166 395.902,401.531 C394.289,398.967 395.166,396.934 397.994,395.511 C403.563,392.709 409.049,395.164 410.549,401.041 C412.093,407.091 415.771,411.405 422.057,412.839 C424.869,413.48 424.644,415.585 424.745,417.436 C424.851,419.368 423.287,419.281 421.833,419.2" fill="#FEF7E9"/>
    <path d="M223.523,419.637 C221.612,420.623 219.122,418.623 217.445,420.815 C216.511,419.879 216.589,418.905 217.935,418.879 C219.798,418.844 221.809,418.352 223.523,419.637" fill="#A48963"/>
    <path d="M39.628,170.024 C39.262,169.632 38.895,169.24 38.529,168.848 C38.993,167.286 39.501,165.762 41.485,165.572 C40.866,167.056 40.247,168.54 39.628,170.024" fill="#F4F0E9"/>
    <path d="M234.128,353.377 C216.12,352.495 198.442,346.76 185.931,329.983 C183.94,327.313 182.309,324.413 181.128,321.271 C179.92,318.06 180.978,315.488 183.866,314.17 C186.717,312.869 189.6,313.577 191.115,316.61 C201.637,337.68 220.169,342.778 241.618,341.988 C250.569,341.659 259,339.238 266.769,334.748 C273.432,330.898 278.635,325.65 281.561,318.397 C283.081,314.631 285.688,312.332 289.668,314.209 C293.743,316.131 293.151,319.761 291.566,323.251 C283.9,340.136 269.606,347.954 252.427,351.741 C247.053,352.926 241.571,353.329 234.128,353.377" fill="#6E4100"/>
    <path d="M186.938,245.782 C186.738,248.262 185.828,250.332 183.38,251.325 C180.614,252.447 177.978,252.056 176.255,249.562 C173.046,244.913 168.346,243.115 163.143,242.261 C158.864,241.56 154.931,242.101 151.824,245.741 C149.223,248.788 145.983,248.801 142.976,246.358 C140.042,243.974 139.232,240.801 141.305,237.488 C145.849,230.223 152.525,226.662 161.075,227.442 C170.895,228.338 178.474,233.558 184.776,240.835 C185.983,242.229 186.795,243.88 186.938,245.782" fill="#6E4100"/>
    <path d="M333.461,241.224 C333.139,244.053 331.856,246.397 329.228,247.53 C326.97,248.505 324.632,248.101 322.682,246.416 C315.724,240.4 304.852,241.17 298.947,248.105 C295.494,252.161 292.239,252.964 289.304,250.483 C286.427,248.05 286.53,244.06 289.686,240.284 C295.549,233.27 302.789,228.451 312.026,227.459 C320.315,226.569 326.986,229.736 331.79,236.623 C332.743,237.99 333.627,239.417 333.461,241.224" fill="#6E4100"/>
    <path d="M171.449,156.182 C169.066,156.035 166.866,155.287 164.722,154.376 C156.689,150.963 149.614,146.082 143.235,140.171 C140.905,138.011 139.783,135.274 142.196,132.746 C144.598,130.23 147.175,131.223 149.575,133.48 C156.289,139.793 163.681,145.039 172.807,147.355 C175.434,148.021 176.828,149.699 176.421,152.456 C176.008,155.262 174.032,156.2 171.449,156.182" fill="#6E4100"/>
    <path d="M235.108,231.32 C239.468,231.357 243.485,236.179 243.456,240.776 C243.434,244.328 241.358,245.801 238.042,245.889 C234.216,245.99 230.336,241.275 230.299,236.499 C230.272,232.915 232.357,231.497 235.108,231.32" fill="#6F4401"/>
  </g>
</svg>
